# xmcd
#
# Track frame offsets:
#	150
#	17786
#	35801
#
# Disc length: 669 seconds
#
# Revision: 0
# Processed by: cddbd v1.5.1PL2 Copyright (c) Steve Scherf et al.
# Submitted via: audiograbber 1.81.03
#
DISCID=20029b03
DTITLE=Nancy`Dutra - Selection From A Forthcoming Release
DYEAR=2006
DGENRE=Country
TTITLE0=Sweet Tomorrow
TTITLE1=By Appointment Only
TTITLE2=Ride That Train
EXTD=
EXTT0=
EXTT1=
EXTT2=
PLAYORDER=
